<?xml version="1.0" standalone="no"?>
<!DOCTYPE svg PUBLIC "-//W3C//DTD SVG 20010904//EN"
 "http://www.w3.org/TR/2001/REC-SVG-20010904/DTD/svg10.dtd">
<svg version="1.0" xmlns="http://www.w3.org/2000/svg"
 width="202.000000pt" height="202.000000pt" viewBox="0 0 202.000000 202.000000"
 preserveAspectRatio="xMidYMid meet">

<g transform="translate(0.000000,202.000000) scale(0.100000,-0.100000)"
fill="#000000" stroke="none">
<path d="M968 1893 c29 -2 74 -2 100 0 26 2 2 3 -53 3 -55 0 -76 -1 -47 -3z"/>
<path d="M825 1880 c-42 -11 -1 -11 50 -1 34 7 35 9 10 9 -16 0 -43 -4 -60 -8z"/>
<path d="M1180 1876 c56 -12 110 -29 195 -61 14 -6 17 -5 10 3 -16 17 -155 60
-215 66 l-55 6 65 -14z"/>
<path d="M715 1800 c3 -5 8 -10 11 -10 2 0 4 5 4 10 0 6 -5 10 -11 10 -5 0 -7
-4 -4 -10z"/>
<path d="M1450 1776 c191 -116 332 -286 396 -476 22 -66 38 -90 23 -34 -15 56
-81 194 -119 249 -57 83 -151 175 -242 235 -49 33 -95 60 -101 60 -7 0 13 -16
43 -34z"/>
<path d="M397 1334 c-4 -4 -7 -44 -7 -89 0 -67 4 -87 20 -108 26 -33 69 -42
112 -24 46 19 60 56 56 148 -3 66 -5 74 -23 74 -18 0 -20 -8 -23 -80 -3 -85
-12 -105 -47 -105 -35 0 -44 20 -47 105 -2 63 -6 80 -18 83 -9 1 -19 0 -23 -4z"/>
<path d="M720 1226 c0 -109 1 -116 20 -116 16 0 20 7 20 35 0 46 23 46 52 0
17 -26 30 -35 51 -35 l28 0 -24 35 -24 36 19 38 c14 28 16 44 9 62 -14 38 -35
50 -95 56 l-56 6 0 -117z m105 44 c9 -27 -11 -50 -41 -50 -21 0 -24 5 -24 35
0 32 2 35 29 35 21 0 32 -6 36 -20z"/>
<path d="M1017 1334 c-4 -4 -7 -56 -7 -116 l0 -108 25 0 26 0 -3 112 c-2 92
-6 113 -18 116 -9 1 -19 0 -23 -4z"/>
<path d="M1272 1323 c-5 -10 -22 -47 -37 -83 -15 -36 -34 -80 -42 -97 -13 -32
-12 -33 11 -33 15 0 26 7 29 20 4 16 14 20 45 20 32 0 42 -4 47 -20 4 -13 15
-20 31 -20 13 0 24 3 24 6 0 7 -90 217 -95 222 -2 2 -8 -5 -13 -15z m22 -109
c9 -23 8 -24 -14 -24 -11 0 -20 2 -20 4 0 12 13 36 20 36 4 0 11 -7 14 -16z"/>
<path d="M1510 1221 c0 -104 1 -111 20 -111 17 0 20 7 20 48 l1 47 20 -27 c11
-14 28 -36 37 -49 l18 -22 30 47 c16 25 32 46 37 46 4 0 7 -20 7 -45 0 -38 3
-45 20 -45 19 0 20 7 20 111 0 60 -4 108 -8 105 -4 -2 -28 -34 -52 -70 -25
-36 -50 -66 -55 -66 -6 0 -30 30 -55 66 -24 36 -48 68 -52 70 -4 3 -8 -45 -8
-105z"/>
<path d="M160 773 c0 -24 47 -140 82 -204 50 -88 121 -173 200 -239 68 -57
175 -126 183 -118 2 2 -24 20 -58 40 -167 97 -302 259 -374 448 -18 47 -32 80
-33 73z"/>
<path d="M645 202 c15 -16 150 -59 229 -73 78 -13 283 -7 331 10 l30 11 -30
-5 c-16 -3 -84 -8 -151 -12 -128 -6 -239 9 -333 46 -88 35 -87 35 -76 23z"/>
</g>
</svg>
